<svg width="439" height="302" viewBox="0 0 439 302" fill="none" xmlns="http://www.w3.org/2000/svg">
<mask id="path-1-inside-1" fill="white">
<path d="M112.085 8.25781L124.539 18.4818H171.728L181.36 8.25781H186.419H249.467H254.916L266.105 18.4818H313.293L326.137 8.25781H379.649L389.574 0H439V18.4818L433.162 23.8047V124.875V133.845V169.728V178.698V275.078L439 281.552V302H389.574L379.649 295.315H326.137L313.293 281.552H266.105L254.916 295.315H249.467H186.419H181.36L171.728 281.552H124.539L112.085 295.315H58.5723L51.7615 302H0V281.552L5.0594 275.941V223.551V187.669V178.698V169.728V151.786V133.845V124.875V115.904V80.0221V23.095L0 18.4818V1.17969H51.3723L58.5723 8.25781H112.085Z"/>
</mask>
<path d="M5.0594 8.25781V7.75781H4.5594V8.25781H5.0594ZM5.0594 23.095H4.5594V23.3158L4.72251 23.4645L5.0594 23.095ZM15.9566 33.0312H16.4566V32.8105L16.2934 32.6618L15.9566 33.0312ZM15.9566 263.857L16.3279 264.192L16.4566 264.049V263.857H15.9566ZM5.0594 275.941L4.68807 275.607L4.5594 275.749V275.941H5.0594ZM5.0594 295.315H4.5594V295.815H5.0594V295.315ZM433.162 8.25781H433.662V7.75781H433.162V8.25781ZM433.162 23.8047L433.499 24.1742L433.662 24.0255V23.8047H433.162ZM423.043 33.0312L422.707 32.6618L422.543 32.8105V33.0312H423.043ZM423.043 263.857H422.543V264.049L422.672 264.192L423.043 263.857ZM433.162 275.078H433.662V274.886L433.534 274.743L433.162 275.078ZM433.162 295.315V295.815H433.662V295.315H433.162ZM15.9566 124.654L16.2789 125.036L16.4566 124.886V124.654H15.9566ZM15.9566 178.698H16.4566V178.462L16.2743 178.312L15.9566 178.698ZM423.043 124.875H422.543V125.1L422.712 125.249L423.043 124.875ZM423.043 178.698L422.712 178.324L422.543 178.473V178.698H423.043ZM171.728 18.9818H177.079V17.9818H171.728V18.9818ZM177.079 18.9818H218.916V17.9818H177.079V18.9818ZM186.05 7.92057L176.71 18.1445L177.448 18.819L186.788 8.59506L186.05 7.92057ZM218.916 18.9818H260.754V17.9818H218.916V18.9818ZM260.754 18.9818H266.105V17.9818H260.754V18.9818ZM249.132 8.62838L260.418 18.8523L261.089 18.1112L249.803 7.88725L249.132 8.62838ZM5.0594 8.75781H58.5723V7.75781H5.0594V8.75781ZM4.72251 23.4645L15.6197 33.4007L16.2934 32.6618L5.39629 22.7256L4.72251 23.4645ZM15.5852 263.522L4.68807 275.607L5.43072 276.276L16.3279 264.192L15.5852 263.522ZM58.5723 294.815H5.0594V295.815H58.5723V294.815ZM177.079 281.052H171.728V282.052H177.079V281.052ZM176.665 281.833L186.006 295.596L186.833 295.034L177.493 281.271L176.665 281.833ZM266.105 281.052H260.754V282.052H266.105V281.052ZM260.754 281.052H177.079V282.052H260.754V281.052ZM260.367 281.235L249.081 294.998L249.854 295.632L261.14 281.869L260.367 281.235ZM379.649 8.75781H433.162V7.75781H379.649V8.75781ZM432.825 23.4353L422.707 32.6618L423.38 33.4007L433.499 24.1742L432.825 23.4353ZM422.672 264.192L432.791 275.413L433.534 274.743L423.415 263.522L422.672 264.192ZM433.162 294.815H379.649V295.815H433.162V294.815ZM5.5594 23.095V8.25781H4.5594V23.095H5.5594ZM5.5594 295.315V275.941H4.5594V295.315H5.5594ZM5.38178 134.228L16.2789 125.036L15.6342 124.271L4.73702 133.463L5.38178 134.228ZM4.74162 170.114L15.6388 179.084L16.2743 178.312L5.37717 169.342L4.74162 170.114ZM15.4566 33.0312V115.904H16.4566V33.0312H15.4566ZM15.4566 115.904V124.654H16.4566V115.904H15.4566ZM5.37717 125.261L16.2743 116.29L15.6388 115.518L4.74162 124.489L5.37717 125.261ZM15.4566 178.698V187.669H16.4566V178.698H15.4566ZM15.4566 187.669V263.857H16.4566V187.669H15.4566ZM4.74162 179.084L15.6388 188.055L16.2743 187.283L5.37717 178.312L4.74162 179.084ZM422.543 33.0312V115.904H423.543V33.0312H422.543ZM432.662 8.25781V23.8047H433.662V8.25781H432.662ZM422.712 116.278L432.831 125.249L433.494 124.501L423.375 115.53L422.712 116.278ZM422.543 115.904V124.875H423.543V115.904H422.543ZM433.494 133.471L423.375 124.501L422.712 125.249L432.831 134.22L433.494 133.471ZM423.375 179.072L433.494 170.102L432.831 169.353L422.712 178.324L423.375 179.072ZM422.543 178.698V187.669H423.543V178.698H422.543ZM422.543 187.669V263.857H423.543V187.669H422.543ZM432.662 275.078V295.315H433.662V275.078H432.662ZM423.375 188.043L433.494 179.072L432.831 178.324L422.712 187.294L423.375 188.043ZM112.085 8.25781L112.72 7.4849L112.443 7.25781H112.085V8.25781ZM124.539 18.4818L123.904 19.2547L124.181 19.4818H124.539V18.4818ZM313.293 18.4818V19.4818H313.643L313.916 19.2641L313.293 18.4818ZM326.137 8.25781V7.25781H325.787L325.514 7.47545L326.137 8.25781ZM171.728 18.4818V19.4818H172.159L172.455 19.1675L171.728 18.4818ZM266.105 18.4818L265.43 19.22L265.717 19.4818H266.105V18.4818ZM181.36 8.25781V7.25781H180.928L180.632 7.57208L181.36 8.25781ZM254.916 8.25781L255.59 7.51959L255.304 7.25781H254.916V8.25781ZM58.5723 8.25781L57.8712 8.97092L58.163 9.25781H58.5723V8.25781ZM51.3723 1.17969L52.0734 0.466575L51.7816 0.179688H51.3723V1.17969ZM0 1.17969V0.179688H-1V1.17969H0ZM0 18.4818H-1V18.9232L-0.673775 19.2207L0 18.4818ZM5.0594 23.095H6.0594V22.6535L5.73317 22.3561L5.0594 23.095ZM5.0594 275.941L5.80205 276.611L6.0594 276.326V275.941H5.0594ZM0 281.552L-0.742652 280.882L-1 281.168V281.552H0ZM0 302H-1V303H0V302ZM51.7615 302V303H52.1703L52.462 302.714L51.7615 302ZM58.5723 295.315V294.315H58.1635L57.8718 294.601L58.5723 295.315ZM112.085 295.315V296.315H112.529L112.827 295.986L112.085 295.315ZM326.137 295.315L325.405 295.997L325.702 296.315H326.137V295.315ZM313.293 281.552L314.025 280.87L313.728 280.552H313.293V281.552ZM124.539 281.552V280.552H124.095L123.798 280.881L124.539 281.552ZM171.728 281.552L172.547 280.979L172.248 280.552H171.728V281.552ZM181.36 295.315L180.541 295.888L180.839 296.315H181.36V295.315ZM266.105 281.552V280.552H265.629L265.329 280.921L266.105 281.552ZM254.916 295.315V296.315H255.392L255.692 295.946L254.916 295.315ZM379.649 8.25781V9.25781H380.011L380.289 9.0265L379.649 8.25781ZM389.574 0V-1H389.212L388.934 -0.768692L389.574 0ZM439 0H440V-1H439V0ZM439 18.4818L439.674 19.2207L440 18.9232V18.4818H439ZM433.162 23.8047L432.488 23.0658L432.162 23.3633V23.8047H433.162ZM433.162 275.078H432.162V275.462L432.42 275.748L433.162 275.078ZM439 281.552H440V281.168L439.743 280.882L439 281.552ZM439 302V303H440V302H439ZM389.574 302L389.015 302.829L389.268 303H389.574V302ZM379.649 295.315L380.208 294.486L379.955 294.315H379.649V295.315ZM111.451 9.03072L123.904 19.2547L125.174 17.7089L112.72 7.4849L111.451 9.03072ZM313.916 19.2641L326.759 9.04018L325.514 7.47545L312.671 17.6994L313.916 19.2641ZM124.539 19.4818H171.728V17.4818H124.539V19.4818ZM266.105 19.4818H313.293V17.4818H266.105V19.4818ZM172.455 19.1675L182.088 8.94355L180.632 7.57208L171 17.796L172.455 19.1675ZM254.241 8.99604L265.43 19.22L266.779 17.7435L255.59 7.51959L254.241 8.99604ZM181.36 9.25781H186.419V7.25781H181.36V9.25781ZM186.419 9.25781H249.467V7.25781H186.419V9.25781ZM249.467 9.25781H254.916V7.25781H249.467V9.25781ZM58.5723 9.25781H112.085V7.25781H58.5723V9.25781ZM59.2733 7.5447L52.0734 0.466575L50.6713 1.8928L57.8712 8.97092L59.2733 7.5447ZM51.3723 0.179688H0V2.17969H51.3723V0.179688ZM-1 1.17969V18.4818H1V1.17969H-1ZM-0.673775 19.2207L4.38562 23.834L5.73317 22.3561L0.673775 17.7428L-0.673775 19.2207ZM4.31675 275.272L-0.742652 280.882L0.742652 282.222L5.80205 276.611L4.31675 275.272ZM-1 281.552V302H1V281.552H-1ZM0 303H51.7615V301H0V303ZM52.462 302.714L59.2727 296.029L57.8718 294.601L51.061 301.286L52.462 302.714ZM112.085 294.315H58.5723V296.315H112.085V294.315ZM326.868 294.633L314.025 280.87L312.562 282.234L325.405 295.997L326.868 294.633ZM123.798 280.881L111.344 294.644L112.827 295.986L125.28 282.223L123.798 280.881ZM171.728 280.552H124.539V282.552H171.728V280.552ZM170.908 282.125L180.541 295.888L182.179 294.742L172.547 280.979L170.908 282.125ZM313.293 280.552H266.105V282.552H313.293V280.552ZM255.692 295.946L266.881 282.183L265.329 280.921L254.14 294.684L255.692 295.946ZM181.36 296.315H186.419V294.315H181.36V296.315ZM186.419 296.315H249.467V294.315H186.419V296.315ZM249.467 296.315H254.916V294.315H249.467V296.315ZM326.137 9.25781H379.649V7.25781H326.137V9.25781ZM380.289 9.0265L390.213 0.768692L388.934 -0.768692L379.01 7.48912L380.289 9.0265ZM389.574 1H439V-1H389.574V1ZM438 0V18.4818H440V0H438ZM438.326 17.7428L432.488 23.0658L433.836 24.5437L439.674 19.2207L438.326 17.7428ZM432.42 275.748L438.257 282.222L439.743 280.882L433.905 274.408L432.42 275.748ZM438 281.552V302H440V281.552H438ZM439 301H389.574V303H439V301ZM379.649 294.315H326.137V296.315H379.649V294.315ZM390.132 301.171L380.208 294.486L379.091 296.144L389.015 302.829L390.132 301.171ZM6.0594 80.0221V23.095H4.0594V80.0221H6.0594ZM6.0594 115.904V80.0221H4.0594V115.904H6.0594ZM6.0594 275.941V223.551H4.0594V275.941H6.0594ZM6.0594 223.551V187.669H4.0594V223.551H6.0594ZM6.0594 187.669V178.698H4.0594V187.669H6.0594ZM6.0594 178.698V169.728H4.0594V178.698H6.0594ZM6.0594 169.728V151.786H4.0594V169.728H6.0594ZM6.0594 151.786V133.845H4.0594V151.786H6.0594ZM4.0594 115.904V124.875H6.0594V115.904H4.0594ZM4.0594 124.875V133.845H6.0594V124.875H4.0594ZM432.162 23.8047V124.875H434.162V23.8047H432.162ZM432.162 124.875V133.845H434.162V124.875H432.162ZM432.162 133.845V169.728H434.162V133.845H432.162ZM432.162 169.728V178.698H434.162V169.728H432.162ZM432.162 178.698V275.078H434.162V178.698H432.162Z" fill="url(#paint0_linear)" mask="url(#path-1-inside-1)"/>
<defs>
<linearGradient id="paint0_linear" x1="0" y1="0" x2="439" y2="6.26103e-06" gradientUnits="userSpaceOnUse">
<stop stop-color="#EBBF32"/>
<stop offset="1" stop-color="#BD862B"/>
</linearGradient>
</defs>
</svg>
