<svg width="18" height="18" viewBox="0 0 18 18" fill="none" xmlns="http://www.w3.org/2000/svg">
<path d="M5 0C2.239 0 0 2.239 0 5V13C0 15.761 2.239 18 5 18H13C15.761 18 18 15.761 18 13V5C18 2.239 15.761 0 13 0H5ZM15 2C15.552 2 16 2.448 16 3C16 3.552 15.552 4 15 4C14.448 4 14 3.552 14 3C14 2.448 14.448 2 15 2ZM9 4C11.761 4 14 6.239 14 9C14 11.761 11.761 14 9 14C6.239 14 4 11.761 4 9C4 6.239 6.239 4 9 4ZM9 6C8.2044 6 7.4413 6.31607 6.87868 6.87868C6.31607 7.4413 6 8.2044 6 9C6 9.7956 6.31607 10.5587 6.87868 11.1213C7.4413 11.6839 8.2044 12 9 12C9.7956 12 10.5587 11.6839 11.1213 11.1213C11.6839 10.5587 12 9.7956 12 9C12 8.2044 11.6839 7.4413 11.1213 6.87868C10.5587 6.31607 9.7956 6 9 6Z" fill="white"/>
</svg>
