<svg width="887" height="37" viewBox="0 0 887 37" fill="none" xmlns="http://www.w3.org/2000/svg">
<path d="M0 36H297.145M887 36H590.742M476.763 36H443.5H409.351M476.763 36L443.5 13.1739L409.351 36M476.763 36H484.302M409.351 36H400.924M484.302 36L463.901 21.2899M484.302 36H590.742M400.924 36L422.212 21.2899M400.924 36H297.145M422.212 21.2899L443.5 6.57971L463.901 21.2899M422.212 21.2899H463.901M422.212 21.2899H369.879M297.145 36L304.18 30.9275M463.901 21.2899H513.573M590.742 36L581.26 30.9275M415.56 21.2899L443.5 1L470.554 21.2899M311.215 25.8551L317.546 21.2899H369.879M311.215 25.8551H363.67L369.879 21.2899M311.215 25.8551L304.18 30.9275M571.779 25.8551L563.245 21.2899H513.573M571.779 25.8551H521.556L513.573 21.2899M571.779 25.8551L581.26 30.9275M304.18 30.9275H134.824M581.26 30.9275H752.176" stroke="url(#paint0_linear)"/>
<defs>
<linearGradient id="paint0_linear" x1="0" y1="36" x2="887" y2="35.9998" gradientUnits="userSpaceOnUse">
<stop stop-color="#EBBF32"/>
<stop offset="1" stop-color="#BD862B"/>
</linearGradient>
</defs>
</svg>
