<svg width="887" height="37" viewBox="0 0 887 37" fill="none" xmlns="http://www.w3.org/2000/svg">
<path d="M0 1L297.145 1M887 1L590.742 1M476.763 1L443.5 1H409.351M476.763 1L443.5 23.8261L409.351 1M476.763 1H484.302M409.351 1H400.924M484.302 1L463.901 15.7101M484.302 1L590.742 1M400.924 1L422.212 15.7101M400.924 1L297.145 1M422.212 15.7101L443.5 30.4203L463.901 15.7101M422.212 15.7101H463.901M422.212 15.7101H369.879M297.145 1L304.18 6.07246M463.901 15.7101L513.573 15.7101M590.742 1L581.26 6.07246M415.56 15.7101L443.5 36L470.554 15.7101M311.215 11.1449L317.546 15.7101H369.879M311.215 11.1449H363.67L369.879 15.7101M311.215 11.1449L304.18 6.07246M571.779 11.1449L563.245 15.7101H513.573M571.779 11.1449H521.556L513.573 15.7101M571.779 11.1449L581.26 6.07246M304.18 6.07246L134.824 6.07246M581.26 6.07246H752.176" stroke="url(#paint0_linear)"/>
<defs>
<linearGradient id="paint0_linear" x1="0" y1="1" x2="887" y2="1.00022" gradientUnits="userSpaceOnUse">
<stop stop-color="#EBBF32"/>
<stop offset="1" stop-color="#BD862B"/>
</linearGradient>
</defs>
</svg>
