<svg width="487" height="129" viewBox="0 0 487 129" fill="none" xmlns="http://www.w3.org/2000/svg">
<path d="M233.703 19H223.855H152.125M233.703 19H243.552H253.401M233.703 19H253.401M233.703 19L243.552 9.5L253.401 19M253.401 19H263.25H335.125M253.401 109.75H263.25H335.125M253.401 109.75H233.703M253.401 109.75L243.552 117.5L233.703 109.75M233.703 109.75H223.855H152.125M51.5 64.3749L34.0625 48L16.625 64.3749L34.0625 81.5L51.5 64.3749ZM51.5 64.3749V53.0312M51.5 64.3749V75.7187M62.5 5L59.625 1L28.125 31.5L51.5 53.0312M62.5 5L31.75 34.6875L1 64.3749L31.75 93.9375M62.5 5L65.625 9.5H139.779C142.839 9.5 145.731 10.9014 147.628 13.3036L152.125 19M62.5 123.5L59.625 127.5L28.125 97L51.5 75.7187M62.5 123.5L31.75 93.9375M62.5 123.5L65.625 117.5H140.386C143.095 117.5 145.689 116.401 147.573 114.454L152.125 109.75M436.5 64.3749L453.812 48L471.125 64.3749L453.812 81.5L436.5 64.3749ZM436.5 64.3749V53.0312M436.5 64.3749V75.7187M426.25 5L485.25 64.3749L426.25 123.5M426.25 5L429.625 1L459.125 31.5L436.5 53.0312M426.25 5L422.125 9.5H347.777C344.828 9.5 342.028 10.8023 340.128 13.0586L335.125 19M426.25 123.5L429.625 127.5L459.125 97L436.5 75.7187M426.25 123.5L422.125 117.5H347.175C344.577 117.5 342.082 116.489 340.216 114.682L335.125 109.75M436.5 53.0312V41.6875V24.6719M436.5 75.7187V87.0624V104.078M51.5 53.0312V41.6875V30.3437V24.6719M51.5 53.0312V87.0624M51.5 87.0624V75.7187M51.5 87.0624V98.4061V104.078M51.5 75.7187L31.75 93.9375M152.125 19H137.677H51.5V24.6719M152.125 109.75H137.677H51.5V104.078M335.125 19H349.875H436.5V24.6719M335.125 109.75H349.875H436.5V104.078M51.5 24.6719H436.5M51.5 104.078H436.5" stroke="url(#paint0_linear)" stroke-width="1.29"/>
<defs>
<linearGradient id="paint0_linear" x1="463.45" y1="64.3749" x2="105.4" y2="64.375" gradientUnits="userSpaceOnUse">
<stop stop-color="#9F7123"/>
<stop offset="0.234375" stop-color="#EBBF32"/>
<stop offset="0.390625" stop-color="#BD862B"/>
<stop offset="0.572917" stop-color="#EBBF32"/>
<stop offset="0.739583" stop-color="#BD862B"/>
<stop offset="0.869792" stop-color="#EBBF32"/>
<stop offset="1" stop-color="#9F7123"/>
</linearGradient>
</defs>
</svg>
